<!-- Generated by IcoMoon.io -->
<svg version="1.1" xmlns="http://www.w3.org/2000/svg" width="32" height="32" viewBox="0 0 32 32">
<path fill="#e44d26" d="M27.335 6.289l-2.065 23.137-9.284 2.574-9.258-2.57-2.063-23.141z"></path>
<path fill="#f16529" d="M16 30.033l7.502-2.080 1.765-19.772h-9.267z"></path>
<path fill="#ebebeb" d="M11.985 13.857h4.015v-2.838h-7.117l0.765 8.583h6.351v-2.838h-3.756zM12.625 21.021h-2.849l0.398 4.456 5.814 1.614 0.013-0.004v-2.953l-0.012 0.003-3.161-0.853z"></path>
<path fill="#000" d="M6.774 0h1.442v1.425h1.319v-1.425h1.442v4.315h-1.442v-1.445h-1.319v1.445h-1.442v-4.315zM12.875 1.431h-1.27v-1.431h3.982v1.431h-1.27v2.884h-1.442v-2.884h-0zM16.22 0h1.504l0.925 1.516 0.924-1.516h1.505v4.315h-1.436v-2.139l-0.992 1.534h-0.025l-0.993-1.534v2.139h-1.411zM21.795 0h1.443v2.889h2.028v1.426h-3.471v-4.315z"></path>
<path fill="#fff" d="M15.99 19.602h3.495l-0.33 3.681-3.165 0.854v2.953l5.818-1.613 0.043-0.48 0.667-7.472 0.069-0.762h-6.597zM15.99 13.85v0.007h6.855l0.057-0.638 0.129-1.439 0.068-0.761h-7.11v2.831z"></path>
</svg>
