<!-- Generated by IcoMoon.io -->
<svg version="1.1" xmlns="http://www.w3.org/2000/svg" width="32" height="32" viewBox="0 0 32 32">
<path fill="#f7df1e" d="M0 0h32v32h-32z"></path>
<path fill="#000" d="M21.496 25c0.645 1.052 1.483 1.826 2.966 1.826 1.246 0 2.042-0.623 2.042-1.483 0-1.031-0.818-1.396-2.189-1.996l-0.752-0.323c-2.17-0.924-3.611-2.083-3.611-4.531 0-2.255 1.718-3.972 4.404-3.972 1.912 0 3.286 0.665 4.277 2.408l-2.342 1.503c-0.516-0.924-1.072-1.289-1.935-1.289-0.881 0-1.439 0.559-1.439 1.289 0 0.902 0.559 1.267 1.849 1.826l0.752 0.322c2.555 1.096 3.997 2.213 3.997 4.724 0 2.707-2.127 4.19-4.983 4.19-2.793 0-4.597-1.331-5.48-3.075zM10.873 25.261c0.472 0.838 0.902 1.547 1.935 1.547 0.988 0 1.611-0.387 1.611-1.89v-10.225h3.007v10.265c0 3.114-1.826 4.531-4.49 4.531-2.408 0-3.802-1.246-4.511-2.747z"></path>
</svg>
