<!-- Generated by IcoMoon.io -->
<svg version="1.1" xmlns="http://www.w3.org/2000/svg" width="32" height="32" viewBox="0 0 32 32">
<path fill="#f2f2f2" d="M32 16c0 8.836-7.164 16-16 16-8.153 0-14.882-6.097-15.873-13.981-0.084-0.67-0.127-1.345-0.127-2.019 0-1.252 0.144-2.472 0.415-3.641 1.649-7.082 8.001-12.359 15.585-12.359 7.565 0 13.904 5.25 15.57 12.306 0.222 0.936 0.357 1.891 0.407 2.853 0.016 0.28 0.023 0.561 0.023 0.841z"></path>
<path fill="#3b8739" d="M15.2 17.285v-4.16l-3.603-2.079-3.603 2.079v4.16l3.603 2.080z"></path>
<path fill="#333" d="M29.388 16.653l2.348 1.356-2.348 1.356-3.603-2.080v-4.159l3.603-2.080 2.183 1.261c0.222 0.936 0.357 1.891 0.407 2.853l-1.335 0.771v-1.448l-1.255-0.724-1.255 0.724v1.448z"></path>
<path fill="#66a060" d="M30.088 15.609v-0.808l-0.699-0.404-0.7 0.404v0.808l0.7 0.404z"></path>
<path fill="#333" d="M6.293 13.126v5.485l-2.403-1.37v-2.813l-1.199-0.693-1.199 0.693v2.812l-1.365 0.778c-0.084-0.669-0.127-1.343-0.127-2.018 0-1.252 0.144-2.471 0.415-3.641l2.275-1.313z"></path>
<path fill="#6da75d" d="M11.596 11.044l3.603 6.239-3.603 2.080-3.601-6.239z"></path>
<path fill="#55a344" d="M7.995 17.285l1.236-2.018-1.236-2.143z"></path>
<path fill="#639d57" d="M13.998 15.205l1.201-2.080-3.601-2.079z"></path>
<path fill="#333" d="M21.66 6.224v5.519l-1.208-0.697-3.603 2.080v4.16l3.603 2.080 3.603-2.080v-9.781zM21.653 15.898l-1.201 0.693-1.201-0.693v-1.386l1.201-0.693 1.201 0.693z"></path>
<path fill="#66a060" d="M17.635 22.42s-0.071-0.608-0.721-0.608-1.096 0.085-1.096 0.445 1.265 0.36 1.746 0.502c0.481 0.141 0.905 0.509 0.693 1.16s-0.862 0.721-1.867 0.721-1.231-0.834-1.231-1.16h0.566s-0.071 0.509 0.593 0.593 1.3 0.132 1.386-0.381c0.114-0.679-2.15-0.34-2.348-1.005-0.168-0.562-0.071-1.3 1.060-1.414s1.753 0.387 1.753 1.131z"></path>
<path fill="#66a060" d="M12.17 25.071l1.251 0.721c0.629 0.363 1.414-0.091 1.414-0.817v-3.594h-0.509v3.452c0 0.396-0.428 0.645-0.773 0.445l-0.872-0.504v-3.684l3.19-1.841 3.19 1.841v3.684l-3.19 1.841-0.919-0.531-0.6 0.242 1.52 0.876 3.699-2.136v-4.271l-3.699-2.136-3.699 2.136z"></path>
</svg>
